<svg width="67" height="64" viewBox="0 0 67 64" fill="none" xmlns="http://www.w3.org/2000/svg">
<path d="M13.5287 35.4829C14.4571 35.5757 15.3944 36.0254 16.3313 36.1708C18.26 36.4701 20.2915 36.5998 22.2422 36.6973C23.0185 36.7361 23.7879 36.759 24.5607 36.8587C25.0183 36.9177 25.4282 37.2138 25.894 37.3173C28.4274 37.8803 30.9821 37.8055 33.5204 38.1581C38.244 38.8141 42.9616 39.4433 47.6183 40.3747" stroke="#C9C6D2" stroke-width="2" stroke-linecap="round"/>
<path d="M47.6183 40.3747C47.7058 38.7992 50.0824 37.5426 51.1937 36.8587C52.1963 36.2417 53.0721 35.363 54.0388 34.7185" stroke="#C9C6D2" stroke-width="2" stroke-linecap="round"/>
<path d="M54.0388 34.7186C53.2729 34.208 52.0738 34.1733 51.2107 34.0137C48.8853 33.5836 46.68 32.966 44.4421 32.2132C42.4715 31.5504 40.447 30.8417 38.4208 30.3618C35.4312 29.6538 32.2622 29.9388 29.2741 29.2493C27.6441 28.8731 25.9541 28.716 24.2974 28.451C22.6596 28.1889 20.9895 27.6866 19.3377 27.6866" stroke="#C9C6D2" stroke-width="2" stroke-linecap="round"/>
<path d="M19.3377 27.6866C18.684 28.8305 17.3904 29.7867 16.4587 30.7185C15.9312 31.246 15.3578 32.1403 14.7516 32.5444C14.3162 32.8347 14.2742 33.399 13.9788 33.7928C13.6741 34.1991 13.3844 34.5401 13.223 35.0243" stroke="#C9C6D2" stroke-width="2" stroke-linecap="round"/>
<path d="M13.2229 35.0243C13.2229 39.936 12.971 45.0707 12.4246 49.9884C12.2028 51.9853 12 54.1225 12 56.1201" stroke="#C9C6D2" stroke-width="2" stroke-linecap="round"/>
<path d="M12 56.1201C15.2692 56.2563 18.5085 56.7364 21.6817 57.428C25.5033 58.2609 29.374 58.8946 33.1892 59.8484C36.1973 60.6004 39.153 61.179 42.2339 61.5384C43.3068 61.6636 44.5424 61.6141 45.4781 62.0819" stroke="#C9C6D2" stroke-width="2" stroke-linecap="round"/>
<path d="M45.4781 62.082C45.4781 60.1577 45.4991 58.2631 45.6225 56.3494C45.7815 53.8853 45.9781 51.3206 46.5567 48.9098C47.1962 46.2453 47.6183 43.265 47.6183 40.5276" stroke="#C9C6D2" stroke-width="2" stroke-linecap="round"/>
<path d="M54.1916 34.7185C54.5032 35.5755 54.3445 36.6461 54.3445 37.5466C54.3445 38.7894 54.3445 40.0321 54.3445 41.2749C54.3445 43.7475 54.1979 46.2808 53.733 48.7145C53.3798 50.5636 52.954 52.6252 52.8243 54.5065C52.7694 55.3018 52.5101 56.0979 52.5101 56.8844" stroke="#C9C6D2" stroke-width="2" stroke-linecap="round"/>
<path d="M52.6629 57.1902C51.1524 58.2586 49.317 59.0179 47.924 60.256C47.3353 60.7794 46.4398 61.0759 46.0896 61.7762" stroke="#C9C6D2" stroke-width="2" stroke-linecap="round"/>
<path d="M19.4906 39.7632C19.4906 41.3315 19.4906 42.8998 19.4906 44.4682C19.4906 45.2357 19.6575 46.2334 19.3717 46.948C19.0471 47.7595 20.3549 47.6823 20.8664 47.7124C21.4097 47.7443 21.8828 47.8473 22.3951 48.0181" stroke="#C9C6D2" stroke-width="2" stroke-linecap="round"/>
<path d="M22.2422 47.8652C21.999 47.0751 22.0893 46.2212 22.0893 45.4023C22.0893 44.6337 21.9847 43.7693 22.1233 43.0074C22.3289 41.8763 22.395 40.7626 22.395 39.6103" stroke="#C9C6D2" stroke-width="2" stroke-linecap="round"/>
<path d="M22.395 39.6103C21.5893 39.6103 20.7392 39.9161 19.9492 39.9161" stroke="#C9C6D2" stroke-width="2" stroke-linecap="round"/>
<path d="M38.752 41.2919C38.752 43.99 38.752 46.6912 38.752 49.3939" stroke="#C9C6D2" stroke-width="2" stroke-linecap="round"/>
<path d="M38.752 49.3939C38.851 49.7903 40.5103 50.0055 40.8921 50.1582" stroke="#C9C6D2" stroke-width="2" stroke-linecap="round"/>
<path d="M41.5036 50.3111C41.5036 48.4952 41.7852 46.3605 41.4271 44.5701C41.2349 43.6092 41.1978 42.4167 41.1978 41.4448" stroke="#C9C6D2" stroke-width="2" stroke-linecap="round"/>
<path d="M41.1978 41.4448C40.4856 41.5239 39.7964 41.5976 39.0577 41.5976" stroke="#C9C6D2" stroke-width="2" stroke-linecap="round"/>
<path d="M19.1572 50.3783C22.8009 51.1359 26.4759 51.5745 30.169 52.1381C31.2174 52.2981 32.2493 52.5328 33.3098 52.6562C35.2909 52.8868 37.2429 53.2237 39.2299 53.3837C39.9878 53.4447 39.7591 55.4114 39.7414 55.8461C39.7329 56.0532 39.8546 56.7248 39.6238 56.8511C39.3648 56.9929 39.1701 56.918 38.8238 56.876C37.6321 56.7315 36.4524 56.564 35.2649 56.3983C32.0112 55.9445 28.7401 55.5047 25.5155 54.9457C23.2405 54.5513 20.9991 54.0302 18.716 53.6902C17.8419 53.56 18.8508 51.0175 19.1478 50.608" stroke="#C9C6D2" stroke-width="2" stroke-linecap="round"/>
<path d="M32.9645 33.0794C33.1656 31.0677 34.0182 29.0548 34.3337 27.0361C34.5681 25.5354 34.7442 24.0156 34.8845 22.5035C35.1647 19.4839 35.514 16.6015 35.514 13.5644C35.514 12.9678 35.8373 13.04 35.2622 12.8404C34.5372 12.5889 33.5152 12.368 33.2478 11.5657C32.8755 10.4489 32.7808 9.95896 33.8143 9.22072C34.992 8.37951 37.5525 7.93098 38.819 8.7171C40.0105 9.45666 40.9882 11.2207 40.0151 12.5414C38.9155 14.0337 36.5057 14.2413 35.2307 12.9663" stroke="#C9C6D2" stroke-width="2" stroke-linecap="round"/>
<path d="M46.5254 15.5156L43.4494 13.8244" stroke="#C9C6D2" stroke-width="2" stroke-linecap="round"/>
<path d="M42.6443 8.0924L47.5708 5.03642" stroke="#C9C6D2" stroke-width="2" stroke-linecap="round"/>
<path d="M37.4338 4.17046L37.8348 0.999997" stroke="#C9C6D2" stroke-width="2" stroke-linecap="round"/>
<path d="M31.211 5.93291L28.8021 3.83293" stroke="#C9C6D2" stroke-width="2" stroke-linecap="round"/>
<path d="M30.0679 12.1908L27.9427 12.7901" stroke="#C9C6D2" stroke-width="2" stroke-linecap="round"/>
</svg>
