<svg width="105" height="173" viewBox="0 0 105 173" fill="none" xmlns="http://www.w3.org/2000/svg">
<path d="M29.6851 54.298C31.1145 54.441 32.5577 55.1334 34.0002 55.3572C36.9698 55.818 40.0976 56.0177 43.1011 56.1679C44.2964 56.2277 45.481 56.2628 46.6709 56.4164C47.3755 56.5073 48.0066 56.9631 48.7239 57.1225C52.6244 57.9893 56.5579 57.8742 60.4662 58.417C67.739 59.4271 75.0026 60.3959 82.1725 61.8299" stroke="#C9C6D2" stroke-width="2" stroke-linecap="round"/>
<path d="M82.1726 61.8299C82.3074 59.4041 85.9665 57.4694 87.6776 56.4164C89.2213 55.4664 90.5698 54.1134 92.0581 53.1212" stroke="#C9C6D2" stroke-width="2" stroke-linecap="round"/>
<path d="M92.0581 53.1212C90.8788 52.335 89.0325 52.2816 87.7037 52.0359C84.1232 51.3737 80.7279 50.4228 77.2821 49.2637C74.2481 48.2432 71.131 47.1521 68.0111 46.4132C63.4081 45.323 58.5289 45.7619 53.9282 44.7002C51.4184 44.121 48.8164 43.8792 46.2656 43.471C43.7438 43.0676 41.1724 42.2942 38.6292 42.2942" stroke="#C9C6D2" stroke-width="2" stroke-linecap="round"/>
<path d="M38.6291 42.2942C37.6227 44.0554 35.631 45.5277 34.1963 46.9624C33.3842 47.7745 32.5013 49.1515 31.5681 49.7737C30.8976 50.2207 30.8329 51.0895 30.3781 51.6959C29.909 52.3214 29.4629 52.8464 29.2144 53.5919" stroke="#C9C6D2" stroke-width="2" stroke-linecap="round"/>
<path d="M29.2144 53.5919C29.2144 61.1545 28.8265 69.0603 27.9852 76.632C27.6436 79.7066 27.3314 82.9972 27.3314 86.073" stroke="#C9C6D2" stroke-width="2" stroke-linecap="round"/>
<path d="M27.3314 86.073C32.365 86.2827 37.3524 87.0218 42.2382 88.0867C48.1223 89.3691 54.0821 90.3448 59.9563 91.8134C64.5878 92.9712 69.1386 93.8621 73.8823 94.4155C75.5342 94.6082 77.4367 94.532 78.8774 95.2524" stroke="#C9C6D2" stroke-width="2" stroke-linecap="round"/>
<path d="M78.8773 95.2524C78.8773 92.2896 78.9095 89.3725 79.0996 86.426C79.3444 82.632 79.6471 78.6832 80.538 74.9714C81.5226 70.8687 82.1725 66.2801 82.1725 62.0652" stroke="#C9C6D2" stroke-width="2" stroke-linecap="round"/>
<path d="M92.2934 53.1212C92.7732 54.4406 92.5288 56.0891 92.5288 57.4755C92.5288 59.389 92.5288 61.3025 92.5288 63.2159C92.5288 67.0231 92.303 70.9235 91.5873 74.6706C91.0435 77.5177 90.3879 80.692 90.1882 83.5885C90.1037 84.8131 89.7043 86.0387 89.7043 87.2498" stroke="#C9C6D2" stroke-width="2" stroke-linecap="round"/>
<path d="M89.9397 87.7205C87.614 89.3656 84.788 90.5346 82.6433 92.441C81.7368 93.2468 80.358 93.7033 79.8188 94.7816" stroke="#C9C6D2" stroke-width="2" stroke-linecap="round"/>
<path d="M38.8645 60.8884C38.8645 63.3031 38.8645 65.7178 38.8645 68.1325C38.8645 69.3143 39.1216 70.8505 38.6815 71.9508C38.1817 73.2002 40.1953 73.0813 40.9829 73.1276C41.8194 73.1768 42.5478 73.3354 43.3366 73.5984" stroke="#C9C6D2" stroke-width="2" stroke-linecap="round"/>
<path d="M43.1011 73.363C42.7268 72.1464 42.8657 70.8317 42.8657 69.5709C42.8657 68.3874 42.7048 67.0566 42.9181 65.8835C43.2347 64.142 43.3365 62.4272 43.3365 60.653" stroke="#C9C6D2" stroke-width="2" stroke-linecap="round"/>
<path d="M43.3365 60.653C42.0958 60.653 40.7869 61.1238 39.5706 61.1238" stroke="#C9C6D2" stroke-width="2" stroke-linecap="round"/>
<path d="M68.5211 63.2421C68.5211 67.3964 68.5211 71.5553 68.5211 75.7167" stroke="#C9C6D2" stroke-width="2" stroke-linecap="round"/>
<path d="M68.5211 75.7167C68.6737 76.327 71.2285 76.6584 71.8163 76.8935" stroke="#C9C6D2" stroke-width="2" stroke-linecap="round"/>
<path d="M72.7577 77.1289C72.7577 74.3329 73.1914 71.0462 72.64 68.2895C72.3442 66.81 72.287 64.9739 72.287 63.4775" stroke="#C9C6D2" stroke-width="2" stroke-linecap="round"/>
<path d="M72.2871 63.4775C71.1905 63.5993 70.1293 63.7128 68.9919 63.7128" stroke="#C9C6D2" stroke-width="2" stroke-linecap="round"/>
<path d="M38.3512 77.2323C43.9614 78.3988 49.6198 79.0742 55.306 79.9419C56.9202 80.1883 58.5091 80.5496 60.1418 80.7397C63.1922 81.0947 66.1976 81.6133 69.257 81.8597C70.4239 81.9537 70.0718 84.9817 70.0445 85.6511C70.0314 85.97 70.2189 87.004 69.8635 87.1985C69.4647 87.4168 69.1648 87.3014 68.6318 87.2368C66.7969 87.0144 64.9806 86.7563 63.1522 86.5013C58.1423 85.8026 53.106 85.1254 48.1411 84.2647C44.6383 83.6575 41.1872 82.8551 37.6719 82.3316C36.3261 82.1312 37.8794 78.2165 38.3368 77.586" stroke="#C9C6D2" stroke-width="2" stroke-linecap="round"/>
<path d="M44.5134 88.4267C44.5134 90.3159 43.8661 90.7233 46.161 91.3688C48.4666 92.0172 51.001 92.8464 53.4052 92.8987C55.2685 92.9392 57.5136 93.2687 59.3286 93.7225C60.1679 93.9323 61.2008 94.0755 62.0615 94.0755C62.7923 94.0755 62.9423 92.854 63.1076 92.1926" stroke="#C9C6D2" stroke-width="2" stroke-linecap="round"/>
<path d="M44.5134 90.545C44.5134 91.7953 43.9286 93.3822 44.2911 94.6509C44.4294 95.1349 48.5177 95.3496 49.2469 95.4354C51.3273 95.6802 53.6398 95.7599 55.6281 96.3769C57.3135 96.9 59.2287 97.0553 60.9631 97.3707C61.7348 97.511 62.7187 98.0107 62.8592 96.8869C62.9587 96.0902 62.994 95.0525 63.2907 94.3109C63.4814 93.8342 63.1076 93.4005 63.1076 92.8987" stroke="#C9C6D2" stroke-width="2" stroke-linecap="round"/>
<path d="M44.7487 94.5463C42.182 94.5463 39.6694 94.3109 37.1123 94.3109C35.8258 94.3109 34.8879 94.3517 34.6147 95.8539C34.4511 96.7538 33.9217 97.6338 33.9217 98.5476C33.9217 99.4861 33.948 100.352 33.7386 101.267C33.4752 102.42 33.5095 103.838 33.4379 105.02C33.3448 106.557 32.9278 108.081 32.7579 109.61C32.3983 112.847 31.8034 116.156 31.8034 119.417C31.8034 120.35 31.568 121.249 31.568 122.176C31.568 123.039 35.593 122.555 36.2754 122.555C42.8297 122.555 49.4745 123.081 55.9941 123.68C58.5761 123.917 61.0251 124.827 63.6044 125.092C64.5721 125.191 66.598 125.472 67.5142 125.014C68.9218 124.31 69.3488 119.883 69.4494 118.423C69.8034 113.291 70.0527 108.229 71.1101 103.176C71.1986 102.754 71.805 97.551 71.2932 97.423C69.4708 96.9674 67.3854 97.9776 65.5135 97.423C64.5066 97.1247 63.4238 97.4761 62.4014 97.1353" stroke="#C9C6D2" stroke-width="2" stroke-linecap="round"/>
<path d="M34.8631 95.017C34.8631 91.8324 32.975 93.0101 31.5287 94.9385C30.6036 96.172 30.2829 98.4706 30.7441 99.9467C30.9501 100.606 31.0648 101.581 31.6202 102.026C32.2503 102.53 33.9554 101.506 34.157 100.901" stroke="#C9C6D2" stroke-width="2" stroke-linecap="round"/>
<path d="M31.8033 94.3109C31.6766 93.0441 30.2787 92.5023 29.3319 93.2387C28.1376 94.1676 28.2728 95.1646 28.2728 96.6123C28.2728 98.3848 28.0009 100.901 30.3911 100.901" stroke="#C9C6D2" stroke-width="2" stroke-linecap="round"/>
<path d="M72.0517 98.3122C72.15 97.4281 73.8941 95.7406 74.51 97.1484C74.9949 98.2566 74.66 100.565 74.2877 101.607C73.8452 102.846 72.2296 106.435 70.8749 103.726" stroke="#C9C6D2" stroke-width="2" stroke-linecap="round"/>
<path d="M75.3469 98.5475C75.5084 97.0938 76.8302 98.2673 77.1121 98.8875C77.5169 99.778 77.3985 100.816 76.9944 101.725C76.2738 103.346 74.7405 104.835 72.9932 103.961" stroke="#C9C6D2" stroke-width="2" stroke-linecap="round"/>
<path d="M38.8278 99.3717C43.6793 99.3717 47.932 99.8212 52.7642 100.334C53.7299 100.436 54.7728 100.497 55.7205 100.708C56.9202 100.974 58.5201 101.292 59.7403 101.292C61.2136 101.292 62.6497 101.713 64.1573 101.713C65.0999 101.713 66.0426 101.713 66.9852 101.713" stroke="#C9C6D2" stroke-width="2" stroke-linecap="round"/>
<path d="M67.4059 102.133C67.1902 104.155 67.1417 106.179 66.9735 108.198C66.8582 109.582 66.1142 111.08 65.6764 112.393C65.1064 114.103 65.1425 116.039 64.8351 117.815C64.7017 118.585 64.4296 119.365 64.2625 120.117C64.106 120.821 61.38 120.057 60.5816 119.965C55.5081 119.38 50.3969 119.245 45.3323 118.738C43.4133 118.546 41.5029 118.329 39.5598 118.329C39.0333 118.329 37.1421 118.398 37.1176 117.908C37.0437 116.431 37.5652 114.817 37.8537 113.375C38.7886 108.7 38.5899 103.734 38.5899 98.9782" stroke="#C9C6D2" stroke-width="2" stroke-linecap="round"/>
<path d="M37.9231 117.612C39.9909 114.924 42.2781 112.285 43.9904 109.375C44.2545 108.926 45.3318 112.699 45.4549 113.376C45.5298 113.787 46.0733 115.955 46.2656 115.677C46.9151 114.739 52.6929 107.82 53.2221 108.773C54.1808 110.499 54.7421 112.314 55.3143 114.173C55.5529 114.949 57.4168 112.315 57.8118 111.859C59.3435 110.092 60.6137 108.025 62.0354 106.197C62.6024 105.468 62.8022 104.519 63.343 103.843C63.475 103.678 63.8138 106.375 63.8138 106.969C63.8138 107.603 63.9379 108.092 64.0361 108.682C64.178 109.533 65.1549 108.033 65.4614 107.727C65.941 107.247 66.3876 106.801 66.8736 106.315" stroke="#C9C6D2" stroke-width="2" stroke-linecap="round"/>
<path d="M34.3925 122.32C30.9529 125.974 43.2399 124.999 41.4536 122.32" stroke="#C9C6D2" stroke-width="2" stroke-linecap="round"/>
<path d="M34.6279 124.674C34.5609 125.878 33.8399 126.435 34.5233 127.616C35.1444 128.689 37.1864 128.633 38.263 128.387C40.7392 127.821 40.7475 126.128 40.7475 123.967" stroke="#C9C6D2" stroke-width="2" stroke-linecap="round"/>
<path d="M35.0986 128.204C33.9083 130.064 36.419 130.793 37.923 130.793C39.6382 130.793 40.2767 129.051 40.2767 127.498" stroke="#C9C6D2" stroke-width="2" stroke-linecap="round"/>
<path d="M31.8035 153.153C33.1785 152.502 34.8618 152.531 36.2755 153.036C37.0846 153.325 38.0787 154.379 37.0993 155.141C36.5772 155.547 34.5329 155.423 33.8695 155.219C32.9826 154.946 32.0388 154.372 32.0388 153.389" stroke="#C9C6D2" stroke-width="2" stroke-linecap="round"/>
<path d="M32.5095 154.566C31.0933 154.566 30.1867 154.781 28.8743 155.324C26.9187 156.133 24.6155 156.688 22.8593 157.913C20.9578 159.24 19.2466 160.818 17.3282 162.097C16.4158 162.706 15.542 163.372 14.6214 163.967C14.2296 164.221 13.4086 164.468 13.1307 164.869C12.8207 165.317 17.0522 166.046 17.3412 166.099C21.199 166.796 25.2148 167.532 29.1359 167.733C31.4555 167.852 33.8082 167.746 36.1316 167.746C36.9864 167.746 38.1584 167.926 38.1584 166.805C38.1584 165.882 38.1913 164.954 38.1584 164.033C38.0833 161.932 37.8174 159.901 38.1453 157.769C38.2966 156.786 38.2761 155.586 37.6876 154.801" stroke="#C9C6D2" stroke-width="2" stroke-linecap="round"/>
<path d="M38.3937 130.793C38.3937 135.863 36.7461 140.79 36.7461 145.857C36.7461 148.321 36.2754 150.754 36.2754 153.153" stroke="#C9C6D2" stroke-width="2" stroke-linecap="round"/>
<path d="M37.2169 139.973C36.3214 139.538 33.8169 138.497 33.3987 140.077C32.9695 141.699 33.8035 142.405 35.334 142.745C36.5461 143.014 37.1599 142.341 38.1584 141.856C39.8771 141.021 39.038 139.867 37.6877 139.267" stroke="#C9C6D2" stroke-width="2" stroke-linecap="round"/>
<path d="M63.5542 141.168C62.6587 140.734 60.1542 139.692 59.736 141.272C59.3068 142.894 60.1407 143.6 61.6713 143.94C62.8833 144.209 63.4972 143.536 64.4957 143.051C66.2143 142.216 65.3753 141.062 64.025 140.462" stroke="#C9C6D2" stroke-width="2" stroke-linecap="round"/>
<path d="M59.1063 124.203C59.1063 126.769 61.5389 127.355 63.7483 127.485C65.6138 127.595 66.5109 126.938 67.1089 125.144" stroke="#C9C6D2" stroke-width="2" stroke-linecap="round"/>
<path d="M60.2832 126.086C59.6443 127.063 58.8783 128.218 59.7602 129.198C60.8264 130.383 60.7088 131.029 62.5061 131.029C63.8405 131.029 64.5901 130.958 65.566 129.982C66.3258 129.223 66.3763 127.916 65.9321 127.027" stroke="#C9C6D2" stroke-width="2" stroke-linecap="round"/>
<path d="M60.5186 130.087C60.5186 131.354 61.7192 132.285 62.8592 132.428C63.3778 132.493 64.0637 132.526 64.5198 132.258C65.0792 131.929 64.4424 131.067 64.9906 130.793" stroke="#C9C6D2" stroke-width="2" stroke-linecap="round"/>
<path d="M61.0415 156.082C60.6994 156.852 62.4786 156.448 62.9899 156.448C64.2514 156.448 63.8137 155.155 63.8137 154.121C63.8137 152.383 63.5783 150.748 63.5783 149.034C63.5783 147.468 63.5371 144.777 62.9245 143.399C62.328 142.056 62.8722 139.234 62.8722 137.75C62.8722 135.707 63.3429 133.764 63.3429 131.735" stroke="#C9C6D2" stroke-width="2" stroke-linecap="round"/>
<path d="M64.9906 156.448C64.2358 156.051 60.5227 155.099 60.2962 156.684C60.085 158.162 62.2942 158.812 63.3691 158.671C64.1411 158.571 65.4613 158.805 65.4613 157.678C65.4613 156.448 65.0841 156.236 64.0491 155.978" stroke="#C9C6D2" stroke-width="2" stroke-linecap="round"/>
<path d="M60.9893 158.567C60.9063 159.314 60.3844 160.218 60.1524 160.947C59.6701 162.463 59.5771 163.93 59.5771 165.51C59.5771 167.665 58.9982 168.762 61.3293 169.211C67.4131 170.381 73.6608 170.841 79.8189 171.525C80.7546 171.629 81.6028 171.748 82.5648 171.748C83.7562 171.748 86.1825 172.179 84.5262 170.44C82.8754 168.707 81.3965 166.964 79.5704 165.366C75.4729 161.781 71.8018 157.39 65.932 157.39" stroke="#C9C6D2" stroke-width="2" stroke-linecap="round"/>
<path d="M71.7941 138.616C78.6191 140.043 88.6178 140.898 95.5093 141.369C95.5093 141.369 101.594 143.017 103.451 142.918C104.143 142.881 103.459 144.553 103.344 145.363C102.691 149.969 103.169 154.89 102.592 159.487C102.525 160.017 102.653 160.524 102.547 161.05C102.267 162.436 100.009 161.506 99.0212 161.388C96.0709 161.037 93.1796 160.155 90.2433 159.782C86.8679 159.353 83.5364 158.384 80.1671 158.038C77.6759 157.782 75.1899 156.245 72.6658 156.413C71.9758 156.458 71.7639 146.484 72.2166 144.989C72.4968 144.063 71.8598 139.606 71.7941 138.616ZM71.7941 138.616C71.734 137.708 69.2999 137.119 71.7941 138.616Z" stroke="#C9C6D2" stroke-width="2" stroke-linecap="round"/>
<path d="M102.701 146.687C99.6123 149.775 94.3571 149.444 90.2918 150.1C88.8886 150.326 87.4401 150.373 86.0813 150.675C85.087 150.896 85.0773 148.797 84.1823 148.373C82.0855 147.38 77.9197 143.429 75.7651 142.608C74.1653 141.999 74.8521 135.94 72.5868 140.362C72.5868 140.362 73.2507 139.595 72.5868 138.267" stroke="#C9C6D2" stroke-width="2" stroke-linecap="round"/>
<path d="M86.5776 148.099C86.2558 148.755 84.4414 152.279 85.9761 152.558C86.5898 152.669 87.3151 152.571 87.9375 152.571C88.7834 152.571 88.6959 150.183 88.6959 149.42C88.6959 148.182 88.0236 148.805 87.0483 148.805" stroke="#C9C6D2" stroke-width="2" stroke-linecap="round"/>
<path d="M28.5728 97.2598C24.5105 97.4291 21.1985 99.1373 18.3254 102.01C15.2425 105.093 13.9408 109.35 12.3554 113.313C11.17 116.277 9.78481 119.277 8.42386 122.159C7.99168 123.075 7.76504 124.163 7.27719 125.017C6.70906 126.011 4.31864 126.39 3.25467 126.71C2.72498 126.869 2.0987 127.165 1.63474 127.474C0.377139 128.313 1.37446 127.914 2.05338 127.392C3.2517 126.47 4.58537 125.773 5.96665 125.235C7.33555 124.703 6.06426 128.839 5.9758 129.34C5.82381 130.201 5.54094 131.031 5.18399 131.824C4.7534 132.781 5.18118 131.804 5.34781 131.315C5.86688 129.791 6.31744 127.619 7.3591 126.346C8.46453 124.995 9.23098 128.733 9.37033 129.167C9.60154 129.887 9.93293 130.575 10.153 131.296C10.507 132.457 10.2867 131.442 10.2258 130.787C10.1296 129.752 9.72756 128.855 9.40671 127.893" stroke="#C9C6D2" stroke-width="2" stroke-linecap="round"/>
<path d="M77.3889 102.01C79.3502 103.726 81.6407 105.313 83.8868 106.634C85.4601 107.558 87.3382 108.277 88.3643 109.873C89.3855 111.462 90.0344 112.843 90.3665 114.733C90.7417 116.869 90.6577 118.996 90.6577 121.158C90.6577 124.019 89.6114 126.905 88.7739 129.604C88.4913 130.514 87.8729 131.76 87.8729 132.725C87.8729 133.191 87.7525 133.977 87.2905 134.109C86.2068 134.418 85.3798 135.208 85.0062 136.329C84.5515 137.693 84.4052 139.132 84.0233 140.506C84.004 140.576 83.9272 141.136 83.9778 140.943C84.2953 139.737 84.5334 138.51 84.8515 137.303C85.0777 136.445 85.7719 135.323 86.5715 134.873C88.7496 133.648 89.0846 137.3 89.511 138.504C89.8225 139.384 89.6748 140.411 89.6748 141.334C89.6748 141.732 89.6748 142.129 89.6748 142.527C89.6748 143.152 89.6748 141.277 89.6748 140.652C89.6748 138.987 89.6344 137.358 89.5201 135.701C89.4975 135.373 89.5436 134.904 89.3108 134.645C89.0938 134.404 88.7972 133.954 88.4463 133.954C87.9878 133.954 87.8179 133.11 87.5453 132.807C86.1286 131.233 84.6104 132.676 84.9971 134.609C85.2356 135.802 86.1373 136.355 87.2996 136.229C88.6727 136.081 89.6702 134.802 90.2573 133.663C91.2841 131.669 89.6053 129.5 87.4725 129.604C85.7684 129.687 84.7416 131.738 85.5795 133.135" stroke="#C9C6D2" stroke-width="2" stroke-linecap="round"/>
<path d="M59.6101 50.5974C59.9198 47.5 61.2326 44.4008 61.7183 41.2925C62.0793 38.9821 62.3503 36.642 62.5664 34.3138C62.9977 29.6646 63.5356 25.2265 63.5356 20.5503C63.5356 19.6318 64.0334 19.7429 63.1479 19.4357C62.0316 19.0484 60.458 18.7082 60.0463 17.4729C59.4731 15.7535 59.3273 14.9991 60.9186 13.8624C62.7319 12.5672 66.6742 11.8766 68.6242 13.087C70.4588 14.2257 71.9642 16.9418 70.4658 18.9753C68.7728 21.273 65.0625 21.5926 63.0994 19.6295" stroke="#C9C6D2" stroke-width="2" stroke-linecap="round"/>
<path d="M80.4898 23.5546L75.7538 20.9507" stroke="#C9C6D2" stroke-width="2" stroke-linecap="round"/>
<path d="M74.5141 12.1252L82.0993 7.41989" stroke="#C9C6D2" stroke-width="2" stroke-linecap="round"/>
<path d="M66.4915 6.08658L67.1089 1.20505" stroke="#C9C6D2" stroke-width="2" stroke-linecap="round"/>
<path d="M56.9103 8.80021L53.2014 5.5669" stroke="#C9C6D2" stroke-width="2" stroke-linecap="round"/>
<path d="M55.1502 18.4354L51.8781 19.3582" stroke="#C9C6D2" stroke-width="2" stroke-linecap="round"/>
</svg>
